PathFileType	4	(X/Y/Z)	5_coords_data.trc
DataRate	CameraRate	NumFrames	NumMarkers	Units	OrigDataRate	OrigDataStartFrame	OrigNumFrames
30.0	30.0	6	21	m	30.0	39	57
Frame#	Time	THUMB_TIP	THUMB_IP	THUMB_MCP	THUMB_CMC	INDEX_TIP	INDEX_DIP	INDEX_PIP	INDEX_MCP	MIDDLE_TIP	MIDDLE_DIP	MIDDLE_PIP	MIDDLE_MCP	RING_TIP	RING_DIP	RING_PIP	RING_MCP	PINKY_TIP	PINKY_DIP	PINKY_PIP	PINKY_MCP	WRIST
X1	Y1	Z1	X2	Y2	Z2	X3	Y3	Z3	X4	Y4	Z4	X5	Y5	Z5	X6	Y6	Z6	X7	Y7	Z7	X8	Y8	Z8	X9	Y9	Z9	X10	Y10	Z10	X11	Y11	Z11	X12	Y12	Z12	X13	Y13	Z13	X14	Y14	Z14	X15	Y15	Z15	X16	Y16	Z16	X17	Y17	Z17	X18	Y18	Z18	X19	Y19	Z19	X20	Y20	Z20	X21	Y21	Z21
38	1.2666666666666666	-0.008744000434875488	-0.15309100341796875	1.0643599853515624	-0.013777700424194336	-0.12823500061035156	1.058280029296875	-0.033220100402832034	-0.10576200103759766	1.0613599853515625	-0.03977989959716797	-0.0708468017578125	1.061800048828125	-0.009398980140686035	-0.13278399658203124	0.9404849853515626	-0.01890679931640625	-0.12307599639892577	0.958343994140625	-0.028652200698852538	-0.11254100036621094	0.9766240234375	-0.03898559951782227	-0.0925698013305664	1.0071500244140625	-0.015981900215148927	-0.08713590240478515	0.9109739990234375	-0.02361450004577637	-0.08515869903564453	0.9347789916992187	-0.033304798126220704	-0.08140670013427734	0.9624829711914062	-0.041828201293945315	-0.07328009796142577	0.99997998046875	-0.022323299407958984	-0.05477360153198242	0.9132150268554687	-0.025031700134277343	-0.05426800155639649	0.9376539916992187	-0.030802600860595702	-0.053852901458740235	0.9640599975585937	-0.037281200408935546	-0.05397900009155274	0.9997429809570313	-0.018337900161743165	-0.015884900093078615	0.9430130004882813	-0.021792400360107423	-0.022480699539184572	0.9621669921875	-0.02614150047302246	-0.02864109992980957	0.9792739868164062	-0.03184630012512207	-0.037046199798583986	1.0035399780273437	-0.05997520065307617	-0.04078960037231445	1.0720699462890626
39	1.3	-0.0074216599464416505	-0.15334800720214845	1.0608800048828124	-0.01307509994506836	-0.12827999877929688	1.056239990234375	-0.032977798461914065	-0.10627400207519531	1.0610899658203126	-0.03975320053100586	-0.0714720001220703	1.0621700439453126	-0.010117899894714356	-0.1305010070800781	0.938969970703125	-0.019623300552368165	-0.12164900207519531	0.9572329711914063	-0.02936039924621582	-0.11181800079345704	0.9760419921875	-0.03931209945678711	-0.09302179718017578	1.0073900146484376	-0.01672010040283203	-0.08625150299072265	0.9110460205078125	-0.024403499603271483	-0.08466950225830078	0.9348389892578125	-0.03416460037231445	-0.08130879974365235	0.962666015625	-0.0423224983215332	-0.0737157974243164	1.0000700073242188	-0.022401100158691407	-0.055307899475097656	0.9137109985351562	-0.0258794002532959	-0.054700901031494144	0.9379310302734375	-0.03235540008544922	-0.054236000061035156	0.9643469848632813	-0.0386416015625	-0.054290401458740235	1.0001799926757813	-0.01970140075683594	-0.016633399963378905	0.9426939697265625	-0.023389799118041992	-0.022936300277709962	0.9619630126953125	-0.02776849937438965	-0.028905099868774414	0.97914501953125	-0.03338330078125	-0.03717879867553711	1.0036599731445313	-0.06007609939575195	-0.041559101104736325	1.0725
40	1.3333333333333333	-0.003737629890441894	-0.151802001953125	1.054449951171875	-0.011001500129699707	-0.1268040008544922	1.0522900390625	-0.03205899810791016	-0.10677799987792969	1.0603199462890625	-0.03961019897460937	-0.07241570281982422	1.062280029296875	-0.008607330322265625	-0.12563700103759765	0.937260986328125	-0.019241100311279298	-0.11830000305175781	0.9556480102539062	-0.029772899627685548	-0.11003800201416016	0.9748359985351562	-0.04014939880371094	-0.09350099945068359	1.0074099731445312	-0.015956700325012205	-0.08357389831542969	0.9113309936523437	-0.024279699325561524	-0.0828240966796875	0.9348590087890625	-0.034858699798583984	-0.08038970184326172	0.9626079711914063	-0.04338610076904297	-0.07393520355224609	1.0000700073242188	-0.01827899932861328	-0.05378409957885742	0.915219970703125	-0.024242700576782225	-0.0536338005065918	0.9388309936523438	-0.033045501708984376	-0.05373630142211914	0.9647150268554687	-0.04076810073852539	-0.05447529983520508	1.0004099731445313	-0.018607200622558592	-0.01705850028991699	0.9431480102539063	-0.023691400527954102	-0.02319529914855957	0.9622940063476563	-0.029060699462890624	-0.029010099411010744	0.9792890014648438	-0.035517601013183596	-0.037265098571777344	1.00372998046875	-0.06011830139160156	-0.042833499908447266	1.0726300048828126
41	1.3666666666666667	-0.004437290191650391	-0.15112399291992187	1.050280029296875	-0.011907099723815918	-0.12623500061035156	1.0499300537109375	-0.03273320007324219	-0.10703800201416015	1.0601800537109376	-0.03990810012817383	-0.07264250183105468	1.0626400146484376	-0.008039830207824707	-0.12209400177001953	0.9368079833984375	-0.019842899322509766	-0.11590000152587891	0.9549810180664062	-0.03124889945983887	-0.10888899993896485	0.9742130126953125	-0.04182400131225586	-0.0940969009399414	1.0076400146484374	-0.015507200241088866	-0.08309549713134766	0.9120260009765625	-0.024650999069213867	-0.08257579803466797	0.9351740112304687	-0.03617240142822266	-0.08036740112304687	0.962551025390625	-0.0447239990234375	-0.07435160064697266	0.99964697265625	-0.012324899673461913	-0.05433539962768555	0.9179169921875	-0.02157360076904297	-0.05402080154418945	0.9400830078125	-0.03348619842529297	-0.054070098876953125	0.9649199829101562	-0.042714000701904294	-0.05481320190429687	1.0002999877929688	-0.015289299964904786	-0.019517900466918946	0.943572021484375	-0.02258760070800781	-0.02475900077819824	0.9622020263671875	-0.029496900558471678	-0.029890100479125978	0.9789249877929688	-0.03732809829711914	-0.037444698333740235	1.003260009765625	-0.05979510116577148	-0.04318870162963867	1.0725999755859374
42	1.4	-0.007412630081176758	-0.15111700439453124	1.0459000244140626	-0.01451420021057129	-0.1261750030517578	1.0474000244140624	-0.034144699096679686	-0.1072969970703125	1.059760009765625	-0.04042279815673828	-0.07288569641113281	1.0627099609375	-0.01015120029449463	-0.11871700286865235	0.9362329711914062	-0.022718799591064452	-0.11354199981689453	0.9541619873046875	-0.034844398498535156	-0.10772100067138672	0.9734910278320312	-0.04434130096435547	-0.09479350280761718	1.0077100219726562	-0.016923900604248046	-0.08458390045166016	0.9127360229492187	-0.02681410026550293	-0.083668701171875	0.9354420166015625	-0.03894940185546875	-0.08115689849853516	0.9624520263671875	-0.04702249908447265	-0.0749574966430664	0.9996710205078125	-0.008257559776306152	-0.05688180160522461	0.9210599975585938	-0.020453500747680663	-0.05591360092163086	0.9412420043945312	-0.03508459854125977	-0.055342098236083985	0.9646890258789063	-0.04519060134887695	-0.05539720153808594	1.0000700073242188	-0.01331820011138916	-0.02359950065612793	0.943656982421875	-0.02245680046081543	-0.027493499755859376	0.9617490234375	-0.030776100158691408	-0.03161440086364746	0.9782570190429688	-0.03948720169067383	-0.03787620162963867	1.002780029296875	-0.059486301422119144	-0.043092300415039066	1.07247998046875
43	1.4333333333333333	-0.009915499687194825	-0.1503769989013672	1.0408499755859375	-0.016408700942993164	-0.1253290023803711	1.0440699462890626	-0.03502320098876953	-0.1070270004272461	1.0585899658203124	-0.04072750091552734	-0.07283419799804687	1.06247998046875	-0.01152079963684082	-0.11517900085449219	0.93602099609375	-0.024739599227905272	-0.11111599731445312	0.9538079833984375	-0.03734700012207031	-0.10636599731445312	0.9730180053710937	-0.04634920120239258	-0.09509860229492187	1.0082100219726562	-0.018385000228881836	-0.08597229766845703	0.9135770263671875	-0.028895200729370116	-0.08472460174560546	0.9357410278320313	-0.04166339874267578	-0.08199079895019531	0.9622990112304688	-0.04903889846801758	-0.07546720123291016	0.9996900024414063	-0.004754909992218018	-0.058536598205566406	0.9247919921875	-0.019377500534057616	-0.05717259979248047	0.9427620239257812	-0.03653219985961914	-0.056331001281738284	0.96460498046875	-0.047681800842285155	-0.056074100494384764	0.9997680053710938	-0.013167699813842774	-0.027560499191284178	0.9437979736328125	-0.023622499465942384	-0.030157199859619142	0.9610999755859375	-0.03298989868164062	-0.03328910064697266	0.9772769775390625	-0.04201580047607422	-0.0382671012878418	1.0025900268554688	-0.05969649887084961	-0.04292789840698242	1.0723499755859376
